{
  "accessors": [
    {
      "bufferView": 2,
      "componentType": 5126,
      "count": 2333,
      "max": [
        0.6592429876327515,
        0.4225435256958008,
        1.8773913383483887
      ],
      "min": [
        -0.6677705645561218,
        -0.38870492577552795,
        0.1274094581604004
      ],
      "type": "VEC3"
    },
    {
      "bufferView": 2,
      "byteOffset": 27996,
      "componentType": 5126,
      "count": 2333,
      "max": [
        0.9999968409538269,
        0.999997079372406,
        1.0
      ],
      "min": [
        -0.9999973177909851,
        -0.99982750415802,
        -1.0
      ],
      "type": "VEC3"
    },
    {
      "bufferView": 3,
      "componentType": 5126,
      "count": 2333,
      "max": [
        0.9999866485595703,
        1.0,
        0.9991691708564758,
        1.0
      ],
      "min": [
        -1.0,
        -1.0,
        -0.9999592900276184,
        -1.0
      ],
      "type": "VEC4"
    },
    {
      "bufferView": 1,
      "componentType": 5126,
      "count": 2333,
      "max": [
        0.9912047386169434,
        0.9912645816802979
      ],
      "min": [
        0.001220703125,
        0.001220703125
      ],
      "type": "VEC2"
    },
    {
      "bufferView": 0,
      "componentType": 5125,
      "count": 12156,
      "type": "SCALAR"
    },
    {
      "bufferView": 2,
      "byteOffset": 55992,
      "componentType": 5126,
      "count": 1575,
      "max": [
        0.7725343704223633,
        0.47409144043922424,
        1.6543751955032349
      ],
      "min": [
        -0.7725343704223633,
        -0.47409141063690186,
        0.047752976417541504
      ],
      "type": "VEC3"
    },
    {
      "bufferView": 2,
      "byteOffset": 74892,
      "componentType": 5126,
      "count": 1575,
      "max": [
        0.9999939799308777,
        0.9998964667320251,
        0.9990628361701965
      ],
      "min": [
        -0.9999939799308777,
        -0.9994686245918274,
        -0.9999645352363586
      ],
      "type": "VEC3"
    },
    {
      "bufferView": 3,
      "byteOffset": 37328,
      "componentType": 5126,
      "count": 1575,
      "max": [
        1.0,
        0.9852631688117981,
        0.9999898076057434,
        1.0
      ],
      "min": [
        -1.0,
        -0.9788365364074707,
        -0.9935201406478882,
        1.0
      ],
      "type": "VEC4"
    },
    {
      "bufferView": 1,
      "byteOffset": 18664,
      "componentType": 5126,
      "count": 1575,
      "max": [
        0.9816374778747559,
        0.9904662370681763
      ],
      "min": [
        0.03369231894612312,
        0.03408195823431015
      ],
      "type": "VEC2"
    },
    {
      "bufferView": 0,
      "byteOffset": 48624,
      "componentType": 5125,
      "count": 8400,
      "type": "SCALAR"
    }
  ],
  "asset": {
    "extras": {
      "author": "M. Fauconnier (https://sketchfab.com/ElFaucon)",
      "license": "CC-BY-4.0 (http://creativecommons.org/licenses/by/4.0/)",
      "source": "https://sketchfab.com/3d-models/heart-potion-08d82cf42f7d4ce1929bd63bde3dc362",
      "title": "Heart Potion"
    },
    "generator": "Sketchfab-16.74.0",
    "version": "2.0"
  },
  "bufferViews": [
    {
      "buffer": 0,
      "byteLength": 82224,
      "name": "floatBufferViews",
      "target": 34963
    },
    {
      "buffer": 0,
      "byteLength": 31264,
      "byteOffset": 82224,
      "byteStride": 8,
      "name": "floatBufferViews",
      "target": 34962
    },
    {
      "buffer": 0,
      "byteLength": 93792,
      "byteOffset": 113488,
      "byteStride": 12,
      "name": "floatBufferViews",
      "target": 34962
    },
    {
      "buffer": 0,
      "byteLength": 62528,
      "byteOffset": 207280,
      "byteStride": 16,
      "name": "floatBufferViews",
      "target": 34962
    }
  ],
  "buffers": [
    {
      "byteLength": 269808,
      "uri": "scene.bin"
    }
  ],
  "extensionsUsed": [
    "KHR_materials_specular",
    "KHR_materials_emissive_strength"
  ],
  "images": [
    {
      "uri": "textures/Health_Potion_baseColor.png"
    },
    {
      "uri": "textures/Health_Potion_metallicRoughness.png"
    },
    {
      "uri": "textures/Health_Potion_emissive.png"
    },
    {
      "uri": "textures/Health_Potion_normal.png"
    },
    {
      "uri": "textures/Health_Potion_Glass_baseColor.png"
    },
    {
      "uri": "textures/Health_Potion_Glass_metallicRoughness.png"
    },
    {
      "uri": "textures/Health_Potion_Glass_emissive.png"
    },
    {
      "uri": "textures/Health_Potion_Glass_normal.png"
    }
  ],
  "materials": [
    {
      "doubleSided": true,
      "emissiveFactor": [
        0.5,
        0.5,
        0.5
      ],
      "emissiveTexture": {
        "index": 2
      },
      "extensions": {
        "KHR_materials_specular": {
          "specularColorFactor": [
            1.0,
            1.0,
            1.0
          ],
          "specularFactor": 0.0
        }
      },
      "name": "Health_Potion",
      "normalTexture": {
        "index": 3
      },
      "occlusionTexture": {
        "index": 1
      },
      "pbrMetallicRoughness": {
        "baseColorTexture": {
          "index": 0
        },
        "metallicRoughnessTexture": {
          "index": 1
        }
      }
    },
    {
      "alphaMode": "BLEND",
      "doubleSided": true,
      "emissiveFactor": [
        1.0,
        1.0,
        1.0
      ],
      "emissiveTexture": {
        "index": 6
      },
      "extensions": {
        "KHR_materials_emissive_strength": {
          "emissiveStrength": 1.5
        },
        "KHR_materials_specular": {
          "specularColorFactor": [
            1.0,
            1.0,
            1.0
          ],
          "specularFactor": 0.0
        }
      },
      "name": "Health_Potion_Glass",
      "normalTexture": {
        "index": 7
      },
      "occlusionTexture": {
        "index": 5
      },
      "pbrMetallicRoughness": {
        "baseColorTexture": {
          "index": 4
        },
        "metallicRoughnessTexture": {
          "index": 5
        }
      }
    }
  ],
  "meshes": [
    {
      "name": "Potion_Health Potion_0",
      "primitives": [
        {
          "attributes": {
            "NORMAL": 1,
            "POSITION": 0,
            "TANGENT": 2,
            "TEXCOORD_0": 3
          },
          "indices": 4,
          "material": 0,
          "mode": 4
        }
      ]
    },
    {
      "name": "Potion_Health Potion Glass_0",
      "primitives": [
        {
          "attributes": {
            "NORMAL": 6,
            "POSITION": 5,
            "TANGENT": 7,
            "TEXCOORD_0": 8
          },
          "indices": 9,
          "material": 1,
          "mode": 4
        }
      ]
    }
  ],
  "nodes": [
    {
      "children": [
        1
      ],
      "matrix": [
        1.0,
        0.0,
        0.0,
        0.0,
        0.0,
        2.220446049250313e-16,
        -1.0,
        0.0,
        0.0,
        1.0,
        2.220446049250313e-16,
        0.0,
        0.0,
        0.0,
        0.0,
        1.0
      ],
      "name": "Sketchfab_model"
    },
    {
      "children": [
        2
      ],
      "matrix": [
        0.009999999776482582,
        0.0,
        0.0,
        0.0,
        0.0,
        0.0,
        0.009999999776482582,
        0.0,
        0.0,
        -0.009999999776482582,
        0.0,
        0.0,
        0.0,
        0.0,
        0.0,
        1.0
      ],
      "name": "7dd8e1de43994fbb8f9e3def4ddd5862.fbx"
    },
    {
      "children": [
        3
      ],
      "name": "RootNode"
    },
    {
      "children": [
        4,
        5
      ],
      "matrix": [
        100.0,
        0.0,
        0.0,
        0.0,
        0.0,
        -1.629206793918314e-05,
        -99.99999999999868,
        0.0,
        0.0,
        99.99999999999868,
        -1.629206793918314e-05,
        0.0,
        0.0,
        0.0,
        0.0,
        1.0
      ],
      "name": "Potion"
    },
    {
      "mesh": 0,
      "name": "Potion_Health Potion_0"
    },
    {
      "mesh": 1,
      "name": "Potion_Health Potion Glass_0"
    }
  ],
  "samplers": [
    {
      "magFilter": 9729,
      "minFilter": 9987,
      "wrapS": 10497,
      "wrapT": 10497
    }
  ],
  "scene": 0,
  "scenes": [
    {
      "name": "Sketchfab_Scene",
      "nodes": [
        0
      ]
    }
  ],
  "textures": [
    {
      "sampler": 0,
      "source": 0
    },
    {
      "sampler": 0,
      "source": 1
    },
    {
      "sampler": 0,
      "source": 2
    },
    {
      "sampler": 0,
      "source": 3
    },
    {
      "sampler": 0,
      "source": 4
    },
    {
      "sampler": 0,
      "source": 5
    },
    {
      "sampler": 0,
      "source": 6
    },
    {
      "sampler": 0,
      "source": 7
    }
  ]
}
